pedal_clip_forces.mot
version=1
nRows=241
nColumns=4
inDegrees=yes
endheader
time	PedalClip_calcn_r_Fx	PedalClip_calcn_r_Fy	PedalClip_calcn_r_Fz
0.41256343	-12.0322225362425	-180.23429566004	-0
0.41312001	-12.3443855158384	-179.848255607516	-0
0.41367659	-12.6541743066043	-179.465006066074	-0
0.41423317	-12.9616143397826	-179.084671791137	-0
0.41478975	-13.2667305982932	-178.707405928946	-0
0.41534633	-13.5695475863593	-178.333374859157	-0
0.41590291	-13.8700893032537	-177.962743044314	-0
0.41645949	-14.1683792215671	-177.595658396965	-0
0.41701607	-14.4644402704399	-177.232239116348	-0
0.41757265	-14.7582948242711	-176.872564489926	-0
0.41812923	-15.0499646975284	-176.516673100871	-0
0.41868581	-15.3394711464139	-176.16456910935	-0
0.41924239	-15.6268348783005	-175.816232538172	-0
0.41979897	-15.9120760700196	-175.471628716419	-0
0.42024148	-16.195214396269	-175.130714986025	-0
0.42068399	-16.4762690695808	-174.79344513956	-0
0.42128446	-16.7552588934671	-174.459772598156	-0
0.42178685	-17.0322023305024	-174.129653040911	-0
0.42228924	-17.307117587213	-173.803046796172	-0
0.42279163	-17.580022717667	-173.479920986694	-0
0.42329402	-17.8509357475644	-173.160251182352	-0
0.42379642	-18.1198748203264	-172.844022150772	-0
0.42429881	-18.3868583660627	-172.531227225997	-0
0.4248012	-18.6519052932004	-172.221865866518	-0
0.42530359	-18.915035200759	-171.91593915435	-0
0.42580598	-19.1762686064781	-171.613443252514	-0
0.42630838	-19.4356271818914	-171.314361155168	-0
0.42681077	-19.6931339795828	-171.018653686272	-0
0.42731316	-19.9488136298306	-170.726252049362	-0
0.42781555	-20.2026924732419	-170.437054538582	-0
0.42831794	-20.4547985825192	-170.150926762075	-0
0.42882033	-20.7051616101586	-169.867703232308	-0
0.42932273	-20.9538123799854	-169.587190420776	-0
0.42982512	-21.2007821457243	-169.30917254866	-0
0.43032751	-21.446101645645	-169.033420599605	-0
0.4308299	-21.6898004756507	-168.759704018454	-0
0.43133229	-21.9319068875164	-168.487803788898	-0
0.43183469	-22.1724478646056	-168.217525060088	-0
0.43233708	-22.4114493159934	-167.948707354826	-0
0.43283947	-22.6489362771818	-167.68123074791	-0
0.43334186	-22.8849330653351	-167.415017194271	-0
0.43384425	-23.119463387397	-167.150027185422	-0
0.43434665	-23.3525504167311	-166.886252810868	-0
0.43484904	-23.5842168452466	-166.623708839191	-0
0.43535143	-23.8144849149482	-166.362423502905	-0
0.43585382	-24.0433764356008	-166.102430340806	-0
0.43635621	-24.2709127967076	-165.843761905989	-0
0.4368586	-24.4971149807269	-165.586445587188	-0
0.437361	-24.7220035809018	-165.330501359423	-0
0.43786339	-24.9455988233509	-165.075941035712	-0
0.43836578	-25.1679205911491	-164.822768521083	-0
0.43889137	-25.3889884477232	-164.570980619245	-0
0.43941697	-25.608821656828	-164.320568050292	-0
0.43989046	-25.8274391963992	-164.071516456777	-0
0.44036394	-26.044859763788	-163.823807277226	-0
0.44094011	-26.2611017703032	-163.577418440175	-0
0.44145775	-26.4761833236162	-163.332324878718	-0
0.44197539	-26.6901221974267	-163.088498891606	-0
0.44249303	-26.9029357888093	-162.845910389379	-0
0.44291491	-27.1146410648138	-162.604527068991	-0
0.44333679	-27.3252545010575	-162.364314561913	-0
0.44380378	-27.5347920160609	-162.125236600956	-0
0.44427077	-27.7432689057454	-161.887255250477	-0
0.44473776	-27.9506997827748	-161.650331242246	-0
0.44520475	-28.157098525406	-161.414424453246	-0
0.44567173	-28.3624782402862	-161.179494549211	-0
0.44613872	-28.5668512427345	-160.945501795929	-0
0.44660571	-28.7702290562832	-160.71240800707	-0
0.4470727	-28.9726224310352	-160.480177554489	-0
0.44753969	-29.1740413783643	-160.248778324677	-0
0.44800668	-29.3744952181432	-160.018182485865	-0
0.44847367	-29.5739926341963	-159.788366960458	-0
0.44894066	-29.7725417339066	-159.559313579195	-0
0.44940765	-29.9701501085485	-159.331008983333	-0
0.44987463	-30.1668248917454	-159.10344438167	-0
0.45034162	-30.3625728143066	-158.876615248665	-0
0.45080861	-30.5574002545238	-158.65052100535	-0
0.4512756	-30.7513132837298	-158.425164692666	-0
0.45174259	-30.9443177074594	-158.200552636346	-0
0.45220958	-31.1364191028454	-157.976694104591	-0
0.45267657	-31.3276228528927	-157.753600963555	-0
0.45314356	-31.5179341780754	-157.53128733705	-0
0.45361055	-31.7073581654123	-157.309769277718	-0
0.45407753	-31.8958997949393	-157.089064458635	-0
0.45454452	-32.0835639633311	-156.869191895791	-0
0.45501151	-32.2703555044003	-156.650171711364	-0
0.4554785	-32.4562792062264	-156.432024944076	-0
0.45594549	-32.6413398247671	-156.214773406593	-0
0.45641248	-32.8255420939284	-155.998439583096	-0
0.45687947	-33.0088907321917	-155.783046555548	-0
0.45734646	-33.1913904460107	-155.568617946273	-0
0.45781345	-33.3730459303023	-155.35517786683	-0
0.45828044	-33.5538618664152	-155.14275086692	-0
0.45874742	-33.7338429180027	-154.931361880207	-0
0.45921441	-33.9129937252089	-154.721036165624	-0
0.4596814	-34.0913188975231	-154.511799243065	-0
0.46014839	-34.2688230055638	-154.303676821897	-0
0.46061538	-34.4455105719369	-154.096694720374	-0
0.46108237	-34.6213860612019	-153.890878774051	-0
0.46154936	-34.7964538688744	-153.686254731795	-0
0.46201635	-34.9707183093421	-153.482848138894	-0
0.46248334	-35.1441836025325	-153.280684207622	-0
0.46295032	-35.3168538592083	-153.079787676614	-0
0.46341731	-35.4887330647999	-152.880182661116	-0
0.4638843	-35.6598250617642	-152.681892496859	-0
0.46435129	-35.8301335305404	-152.484939580682	-0
0.46481828	-35.9996619692563	-152.289345211234	-0
0.46528527	-36.1684136724162	-152.095129433053	-0
0.46575226	-36.3363917088746	-151.902310887111	-0
0.46621925	-36.5035988994593	-151.710906670584	-0
0.46668624	-36.6700377946553	-151.520932208127	-0
0.46715322	-36.8357106527864	-151.332401136421	-0
0.46762021	-37.0006194191525	-151.145325203109	-0
0.4680872	-37.1647657065654	-150.959714180732	-0
0.46855419	-37.3281507777088	-150.775575795661	-0
0.46902118	-37.4907755296964	-150.592915671612	-0
0.46948817	-37.6526404811564	-150.411737286949	-0
0.46995516	-37.8137457620884	-150.232041944719	-0
0.47042215	-37.9740911066791	-150.053828754153	-0
0.47088914	-38.1336758491796	-149.877094622309	-0
0.47135613	-38.2924989228777	-149.701834254392	-0
0.47182311	-38.4505588621318	-149.528040161361	-0
0.4722901	-38.6078538073757	-149.355702673482	-0
0.47275709	-38.7643815129496	-149.184809958585	-0
0.47322408	-38.9201393575711	-149.015348044043	-0
0.47369107	-39.0751243572284	-148.847300841676	-0
0.47415806	-39.2293331802477	-148.680650175102	-0
0.47462505	-39.3827621642643	-148.515375809341	-0
0.47509204	-39.5354073348145	-148.351455482814	-0
0.47553749	-39.687264425253	-148.188864942118	-0
0.47598295	-39.8383288976879	-148.027577980264	-0
0.4764377	-39.9885959646346	-147.867566479251	-0
0.47684381	-40.1380606110818	-147.708800457995	-0
0.47724993	-40.2867176166815	-147.551248126683	-0
0.47775897	-40.4345615777789	-147.394875948658	-0
0.47826802	-40.5815869290276	-147.239648710772	-0
0.47877706	-40.7277879643501	-147.085529603032	-0
0.4792861	-40.8731588570315	-146.932480308061	-0
0.47968599	-41.0176936787623	-146.780461100613	-0
0.48008588	-41.1613864174757	-146.629430956995	-0
0.4805883	-41.3042309938422	-146.47934767386	-0
0.48109071	-41.4462212763217	-146.330167995468	-0
0.48159313	-41.5873510946884	-146.18184774805	-0
0.48209555	-41.7276142519728	-146.034341979698	-0
0.48249315	-41.8670045347849	-145.887605103763	-0
0.48289076	-42.00551572201	-145.741591043691	-0
0.4833863	-42.1431415918931	-145.596253377013	-0
0.48388184	-42.279875927557	-145.451545476249	-0
0.48437738	-42.4157125210334	-145.307420644598	-0
0.48487293	-42.5506451759169	-145.163832244462	-0
0.48536847	-42.684667708795	-145.020733817219	-0
0.48579855	-42.8177739496416	-144.878079193045	-0
0.48622864	-42.949957741402	-144.735822590118	-0
0.48669262	-43.0812129390315	-144.59391870307	-0
0.48715661	-43.211533408275	-144.452322781218	-0
0.48772209	-43.3409130245031	-144.31099069769	-0
0.48822682	-43.4693456719192	-144.169879011218	-0
0.48873154	-43.5968252434634	-144.028945022912	-0
0.48923627	-43.7233456417117	-143.888146830801	-0
0.48963717	-43.8489007810574	-143.747443385247	-0
0.49003807	-43.9734845914185	-143.606794548475	-0
0.49035958	-44.0970910236745	-143.466161161355	-0
0.49082042	-44.2197140569902	-143.32550512023	-0
0.49140642	-44.3413477081271	-143.184789465983	-0
0.49185392	-44.4619860427891	-143.043978486668	-0
0.49230142	-44.5816231889954	-142.903037834002	-0
0.49274893	-44.7002533524175	-142.76193465283	-0
0.49319643	-44.8178708335618	-142.620637721409	-0
0.49364393	-44.9344700466314	-142.479117599212	-0
0.49409144	-45.0500455398502	-142.337346777812	-0
0.49453894	-45.1645920169969	-142.195299829572	-0
0.49498644	-45.2781043598541	-142.052953548241	-0
0.49543395	-45.3905776512611	-141.910287075246	-0
0.49588145	-45.5020071984398	-141.767282005555	-0
0.49632896	-45.6123885562598	-141.623922467354	-0
0.49677646	-45.7217175501192	-141.4801951706	-0
0.49722396	-45.8299902981367	-141.336089420572	-0
0.49767147	-45.9372032323704	-141.191597093922	-0
0.49811897	-46.043353118821	-141.046712576388	-0
0.49856647	-46.1484370760015	-140.901432662909	-0
0.49901398	-46.2524525918987	-140.755756422665	-0
0.49946148	-46.3553975391714	-140.609685033082	-0
0.49990898	-46.4572701884684	-140.463221588188	-0
0.50035649	-46.5580692197565	-140.31637088764	-0
0.50080399	-46.6577937315689	-140.169139213391	-0
0.50125149	-46.7564432480894	-140.021534101027	-0
0.501699	-46.8540177239945	-139.87356411257	-0
0.5021465	-46.9505175469752	-139.725238616843	-0
0.502594	-47.0459435378676	-139.576567582519	-0
0.50304151	-47.1402969483279	-139.42756138777	-0
0.50348901	-47.2335794559925	-139.278230649154	-0
0.50393651	-47.3257931570996	-139.12858607106	-0
0.50438402	-47.4169405565439	-138.978638315839	-0
0.50483152	-47.5070245553894	-138.828397893716	-0
0.50527902	-47.5960484358896	-138.677875070752	-0
0.50572653	-47.6840158440959	-138.527079792595	-0
0.50617403	-47.7709307701804	-138.376021621426	-0
0.50662154	-47.8567975266351	-138.224709683483	-0
0.50706904	-47.9416207245438	-138.073152624678	-0
0.50751654	-48.0254052481475	-137.921358572164	-0
0.50796405	-48.1081562279589	-137.769335100183	-0
0.50841155	-48.1898790126927	-137.617089199019	-0
0.50885905	-48.2705791402804	-137.464627246484	-0
0.50930656	-48.3502623082542	-137.311954981875	-0
0.50975406	-48.4289343437613	-137.159077482847	-0
0.51020156	-48.5066011734689	-137.005999146011	-0
0.51064907	-48.5832687935873	-136.852723672383	-0
0.51109657	-48.6589432402273	-136.69925405893	-0
0.51154407	-48.7336305602742	-136.545592597479	-0
0.51199158	-48.8073367829345	-136.391740882178	-0
0.51243908	-48.8800678920895	-136.237699826406	-0
0.51288658	-48.9518297995667	-136.083469689762	-0
0.51333409	-49.02262831942	-135.929050115336	-0
0.51378159	-49.0924691432994	-135.774440177045	-0
0.51422909	-49.1613578169807	-135.619638436377	-0
0.5146766	-49.2292997181207	-135.464643007477	-0
0.5151241	-49.296300035312	-135.309451629144	-0
0.5155716	-49.3623637485069	-135.154061741994	-0
0.51601911	-49.4274956108885	-134.998470568885	-0
0.51646661	-49.491700132279	-134.842675196523	-0
0.51691411	-49.5549815641688	-134.686672656184	-0
0.51736162	-49.6173438864638	-134.530460001524	-0
0.51780912	-49.6787907960335	-134.374034381613	-0
0.51825663	-49.739325697136	-134.217393107503	-0
0.51870413	-49.7989516937875	-134.060533710935	-0
0.51915163	-49.8576715841072	-133.90345399403	-0
0.51959914	-49.9154878566513	-133.74615206918	-0
0.52004664	-49.9724026887103	-133.58862638859	-0
0.52049414	-50.028417946514	-133.430875763275	-0
0.52094165	-50.0835351872458	-133.272899371571	-0
0.52138915	-50.1377556627361	-133.114696757399	-0
0.52183665	-50.1910803246785	-132.956267818789	-0
0.52228416	-50.2435098311778	-132.797612787221	-0
0.52273166	-50.2950445544251	-132.63873219848	-0
0.52317916	-50.345684589282	-132.479626855752	-0
0.52362667	-50.3954297625435	-132.320297785664	-0
0.52407417	-50.4442796426556	-132.160746188021	-0
0.52452167	-50.4922335496695	-132.000973379909	-0
0.52496918	-50.5392905652173	-131.840980734863	-0
0.52541668	-50.5854495423256	-131.680769617804	-0
0.52586418	-50.6307091148923	-131.520341316432	-0
